<mxfile host="app.diagrams.net" modified="2023-08-25T13:54:05.760Z" agent="Mozilla/5.0 (X11; Linux x86_64; rv:109.0) Gecko/20100101 Firefox/112.0" version="21.6.9" etag="9LzrNHduh6JB4GtdJUaV" type="github">
  <diagram name="PÃ¡gina-1" id="oieo6DA9D8WXVilEEUo1">
    <mxGraphModel>
      <root>
        <mxCell id="0" />
        <mxCell id="1" parent="0" />
      </root>
    </mxGraphModel>
  </diagram>
</mxfile>
